<svg width="40" height="40" viewBox="0 0 40 40" fill="none" xmlns="http://www.w3.org/2000/svg">
<g clip-path="url(#clip0_144_1024)">
<path d="M33.3339 0H6.87296C3.07713 0 0 3.07713 0 6.87296V33.3339C0 37.1297 3.07713 40.2068 6.87296 40.2068H33.3339C37.1297 40.2068 40.2068 37.1297 40.2068 33.3339V6.87296C40.2068 3.07713 37.1297 0 33.3339 0Z" fill="white"/>
<path d="M14.0174 28.3903C14.005 28.9178 14.0074 29.4333 14.0205 29.9326L20.9873 36.8993C20.9879 36.8993 20.9886 36.8993 20.9897 36.8993L26.1482 31.7409C24.7667 29.3797 24.378 26.6735 24.378 26.6735C24.378 26.6735 25.5908 26.4309 26.5595 26.1377C27.4953 25.8546 27.6509 25.1374 27.6509 25.1374C28.5908 24.925 28.6513 23.9855 28.4695 23.1971C28.2877 22.4088 27.1052 22.0146 26.9839 21.8937C26.8626 21.7724 26.1956 20.9236 25.953 20.4081C25.7104 19.8926 25.8014 19.1954 25.8014 19.1954C25.8014 19.1954 25.3884 18.0029 25.3884 17.9019C25.3884 17.8184 25.2152 16.6455 25.155 16.241L24.8021 16.2042L23.8169 15.1936L23.4832 15.0723C22.0433 15.1482 21.5986 15.7695 21.5986 15.7695C21.4354 15.2932 19.323 15.0458 18.481 15.1479C17.4473 15.2733 17.6676 15.82 17.6676 15.82L17.9504 16.1434L17.1422 16.7699L16.8274 16.9214C16.7508 17.0517 16.6391 17.1469 16.5154 17.2166C16.4532 17.7895 16.0483 21.4363 15.7968 21.4081C15.0549 23.4329 13.7682 26.4425 13.6658 28.4718C13.6535 28.7302 14.0232 28.1367 14.0174 28.3903Z" fill="#B5A872"/>
<path d="M16.8801 16.3658C16.545 16.6198 15.7076 17.0339 15.7076 17.0339C15.7076 17.0339 15.8839 16.9497 14.1264 15.7242C12.369 14.4988 9.39268 15.0599 9.44251 15.2696C10.7886 20.9123 14.4185 20.2047 15.1625 20.2511C15.934 20.2992 16.6217 21.3071 16.6217 21.3071C16.8746 21.3009 16.8956 16.9418 16.8801 16.3658Z" fill="#B5A872"/>
<path d="M21.5269 20.1043C21.5269 20.1043 21.3853 18.6693 21.0015 18.6493C20.6173 18.6291 20.84 19.0737 20.84 19.0737C20.84 19.0737 20.3953 18.1407 19.2637 18.4153C18.1317 18.6899 17.8894 20.1452 17.8894 20.1452C17.8894 20.1452 18.5908 20.8583 18.9344 21.0604C19.2777 21.2621 20.7386 21.9841 21.5269 20.1043Z" fill="white"/>
<path d="M18.592 19.8119C18.592 19.8119 19.0343 19.1394 19.9226 19.3016C20.811 19.4638 20.5491 20.0222 21.0629 20.3549C21.0629 20.3549 18.7659 21.6937 18.592 19.8119Z" fill="#B5A872"/>
<path d="M27.0664 25.036C27.0664 25.036 25.3688 25.2989 24.5602 24.834C24.5602 24.834 24.5804 25.2381 24.7217 25.3391C24.8633 25.4402 24.3983 25.6625 21.4072 25.5209C18.4284 25.38 17.1734 25.4196 16.6442 26.5972C16.6418 26.6024 16.6398 26.6072 16.6377 26.6124L16.8195 26.5921C16.8195 26.5921 16.1707 28.3615 17.3356 29.1664C17.3518 29.1777 17.3683 29.1883 17.3851 29.1993C18.6181 29.9877 17.4456 29.0176 17.4456 29.0176C17.4456 29.0176 17.8102 29.2815 18.3116 29.5347C18.6707 29.8719 19.5109 30.7227 19.8408 31.5942C20.2652 32.7159 20.235 31.6547 20.235 31.6547C20.235 31.6547 21.345 34.4965 21.244 35.3756C21.244 35.3756 22.6282 29.4911 23.3113 27.5715L23.3117 27.5705C23.5117 27.2732 18.8711 26.6405 19.0023 26.41C20.8213 26.5313 24.1361 26.1471 24.1361 26.1471C24.1361 26.1471 27.4705 25.9251 27.0664 25.036Z" fill="white"/>
<path d="M24.9239 25.0764C24.9239 25.0764 22.5531 24.4702 21.8689 24.1063C21.8689 24.1063 23.105 24.2479 23.6102 23.8234C24.1153 23.399 23.0847 23.9042 23.792 23.298C24.4992 22.6918 24.8026 21.8832 25.8738 22.1056C25.8738 22.1056 23.3273 24.4904 26.0154 24.7331C26.0154 24.7331 26.1975 25.1372 24.9239 25.0764Z" fill="white"/>
<path d="M29.6956 17.2034C30.7128 15.7037 30.6311 14.825 30.6311 14.825C30.6311 14.825 30.4905 14.6721 28.0076 15.0147C25.5248 15.357 25.3155 16.5797 25.3155 16.5797L25.1605 16.3642C25.1605 16.3642 25.0128 17.9869 24.9901 18.0801C24.9674 18.1732 25.0801 19.366 25.0801 19.366L25.0805 19.3663C26.253 20.5107 28.6781 18.7028 29.6956 17.2034Z" fill="#B5A872"/>
<path d="M19.2142 19.8095C19.4994 19.6703 19.8194 19.8112 20.0503 19.9868C20.1764 20.083 20.3056 19.8848 20.2115 19.7782C19.9396 19.4703 19.4819 19.5542 19.2029 19.7947C19.1943 19.8019 19.2049 19.814 19.2142 19.8095Z" fill="white"/>
<path d="M24.7969 18.6075C24.5123 19.3501 24.4185 20.1913 24.603 20.968C24.7487 21.5804 25.3391 22.3484 26.022 22.0907C26.0391 22.0842 26.0498 22.0608 26.0336 22.0464C25.502 21.5783 25.0319 21.2976 24.7862 20.5886C24.5632 19.9453 24.612 19.2515 24.8079 18.6106C24.8103 18.6034 24.7996 18.6006 24.7969 18.6075Z" fill="white"/>
<path d="M10.9786 15.6014C11.88 15.5829 12.7333 15.8028 13.5034 16.2736C14.2845 16.7513 14.6333 17.8808 14.8357 18.7183C14.8618 18.8269 15.0123 18.8156 15.044 18.7183C15.7684 16.4932 12.6889 15.4444 10.9786 15.5935C10.9738 15.5942 10.9734 15.6018 10.9786 15.6014Z" fill="white"/>
<path d="M24.5671 20.1031C24.618 19.7707 24.5864 19.3972 24.7627 19.1006C24.8489 18.9553 24.7218 19.0755 24.8311 19.0453C24.9056 19.0247 24.9668 18.9786 25.0297 18.9364C25.2266 18.8047 25.3623 18.4968 25.5723 18.8505C25.5802 18.8639 25.6063 18.8594 25.6039 18.8419C25.5723 18.5979 25.4977 18.5343 25.2895 18.4264C25.0634 18.3092 24.741 18.3632 24.6032 18.5882C24.5434 18.6862 24.4963 18.8288 24.564 18.9364C24.564 18.9364 24.5534 19.1814 24.553 19.2422C24.5506 19.5271 24.5561 19.8151 24.5451 20.1C24.5445 20.1127 24.5654 20.1158 24.5671 20.1031Z" fill="white"/>
<path d="M25.3074 18.6482C25.0799 18.7541 24.849 18.6671 24.6535 18.8627C24.4655 19.0506 24.4617 19.3654 24.5043 19.6056C24.5648 19.9465 24.4727 20.2654 24.5988 20.5957C24.6971 20.8527 24.9638 21.0596 25.149 21.2496C25.1662 21.2675 25.1913 21.2414 25.1758 21.2228C24.7126 20.6703 24.4586 20.2067 24.9435 19.5386C25.1274 19.2854 25.1136 18.8644 25.3236 18.6685C25.3353 18.6582 25.3205 18.6424 25.3074 18.6482Z" fill="white"/>
<path d="M24.7668 18.2793C24.0798 18.9092 24.242 20.203 24.7262 20.9308C24.7589 20.98 24.851 20.9491 24.8266 20.8886C24.5149 20.113 24.4877 19.0772 24.7826 18.2885C24.786 18.2789 24.7733 18.2734 24.7668 18.2793Z" fill="white"/>
<path d="M19.0225 18.2107C19.4967 18.2481 19.8926 18.2646 20.2225 18.6498C20.3689 18.821 20.4545 18.9533 20.4953 19.1749C20.5204 19.31 20.5716 19.4478 20.6386 19.5674C20.7136 19.7011 20.9215 19.6708 20.9606 19.5255C21.0957 19.0268 20.8926 18.5952 20.4486 18.3567C19.9651 18.0966 19.5486 18.1275 19.0208 18.2C19.0142 18.2004 19.0166 18.21 19.0225 18.2107Z" fill="white"/>
<path d="M17.2418 23.379C17.5373 24.4969 18.4088 25.1911 19.3806 25.7306C20.3999 26.2966 21.7329 26.131 22.824 25.9265C22.9254 25.9076 22.8903 25.7674 22.8013 25.7591C21.8625 25.6701 20.9278 25.4677 20.0057 25.2715C18.7738 25.0093 17.6861 24.7086 17.2452 23.3783C17.2449 23.3759 17.2411 23.377 17.2418 23.379Z" fill="white"/>
<path d="M26.3138 23.0571C26.8973 22.8564 27.4715 22.7626 28.0169 23.1004C28.0382 23.1134 28.0654 23.0918 28.0588 23.0684C27.875 22.4279 26.6928 22.5997 26.2323 22.7612C26.0468 22.8261 26.1258 23.1217 26.3138 23.0571Z" fill="white"/>
<path d="M17.3684 14.1686C17.4492 12.7418 18.5798 12.7689 17.9069 12.7418C17.234 12.715 16.6955 13.684 16.5072 14.4109C16.3189 15.1377 14.8921 14.5992 13.2769 14.0339C11.6618 13.4686 10.3587 12.8479 9.48134 9.32315C9.04422 7.56745 8.76621 6.42757 8.91707 5.49216C9.28718 3.2014 11.0741 2.84022 10.9786 2.76359C10.8439 2.65603 8.85659 3.10723 8.37754 5.3657C7.78268 8.1709 9.21776 14.5521 12.9268 15.272C15.6942 15.8092 17.2062 17.1985 17.7619 17.8178L19.6794 16.6583C19.2516 16.4521 17.2966 15.4397 17.3684 14.1686Z" fill="#B5A872"/>
<path d="M31.213 5.69289C30.4054 4.18531 29.5439 4.05094 29.5978 4.26606C29.6518 4.48153 30.6209 4.93893 31.0515 6.98501C31.4821 9.03074 30.836 10.4576 28.8978 11.8304C26.9597 13.2033 24.1063 14.3879 24.1063 14.3879C24.0795 12.5573 22.195 12.5844 23.0025 13.1226C23.7194 13.6006 23.0589 15.4113 22.9011 15.8126L25.1995 16.9209C25.1895 16.8535 25.183 16.8106 25.183 16.8106C25.2098 15.9223 25.6136 15.4917 26.6906 14.7649C27.7672 14.038 30.6209 12.3689 31.2937 11.1576C31.967 9.94588 32.0206 7.20013 31.213 5.69289Z" fill="#B5A872"/>
<path d="M25.1938 16.2467L25.1533 16.2271C25.1541 16.2325 25.1549 16.2369 25.1557 16.2424L25.1938 16.2467Z" fill="#B5A872"/>
<path d="M12.4851 8.09009C10.4476 10.3004 10.9555 14.9311 14.404 15.2878C14.8388 15.3328 14.8893 14.751 14.6047 14.5462C13.5394 13.7795 12.627 13.5658 12.1964 12.1383C11.7476 10.6516 12.1951 9.56605 12.6497 8.18562C12.6806 8.09284 12.5511 8.01861 12.4851 8.09009Z" fill="#B5A872"/>
<path d="M26.6033 8.18553C26.8208 9.56219 26.6466 10.9079 25.961 12.1444C25.2355 13.4523 23.9266 14.3334 23.0097 15.4826C22.698 15.8733 23.1053 16.5657 23.5884 16.2324C25.2173 15.109 26.3637 13.4488 26.8125 11.5275C26.9919 10.7588 27.6445 8.58898 26.6266 8.16182C26.6118 8.15598 26.6015 8.17316 26.6033 8.18553Z" fill="#B5A872"/>
<path d="M26.65 22.9265C26.5328 22.8138 26.3002 22.7677 26.1706 22.8877C26.0861 22.966 26.1077 23.1165 26.207 23.1715C26.4816 23.3231 26.9459 23.254 27.1149 22.9732C27.204 22.8255 27.0579 22.6368 26.8926 22.6842C26.8517 22.6959 26.8235 22.7134 26.7923 22.7416C26.8362 22.7234 26.8806 22.7052 26.9246 22.6866C26.7847 22.6866 26.6816 22.6907 26.572 22.7842C26.4826 22.8608 26.5596 22.9966 26.6617 23.0011C26.6737 23.0014 26.7899 23.0045 26.7974 23.0114C26.8266 23.0382 26.8541 23.0529 26.8923 23.0639C26.8634 22.9543 26.8342 22.8447 26.8053 22.7351C26.6414 22.865 26.4953 22.8385 26.2978 22.8351C26.3404 22.8526 26.383 22.8705 26.4256 22.888C26.4222 22.8849 26.4187 22.8815 26.4149 22.8784C26.4235 22.9454 26.4321 23.0124 26.4411 23.0794C26.4844 22.9973 26.5362 22.9364 26.6414 22.9464C26.6521 22.9468 26.6565 22.933 26.65 22.9265Z" fill="white"/>
<path d="M23.4062 16.046C23.7935 16.3388 24.2025 16.6484 24.4537 17.0728C24.553 17.2405 24.6142 17.422 24.7252 17.5848C24.8534 17.7732 24.9915 17.8474 25.1355 18.0137C25.1619 18.0443 25.2083 18.0182 25.2097 17.9828C25.2183 17.7876 25.2846 17.6333 25.1805 17.4515C25.0609 17.2422 24.9314 17.0859 24.7307 16.9501C24.2867 16.6505 23.8667 16.3202 23.4097 16.0391C23.4056 16.0367 23.4025 16.0429 23.4062 16.046Z" fill="white"/>
<path d="M24.3751 16.3879C24.494 16.5827 24.5765 16.7958 24.6627 17.0064C24.738 17.1903 24.8552 17.292 25.0067 17.415C25.0782 17.4728 25.1854 17.4013 25.1377 17.314C25.038 17.1319 24.9693 16.9862 24.8184 16.8391C24.6679 16.6924 24.5208 16.5408 24.3813 16.3834C24.3782 16.3803 24.3727 16.3844 24.3751 16.3879Z" fill="white"/>
<path d="M23.0906 27.6795C22.6198 28.9815 22.2775 30.1805 22.1583 31.564C22.1566 31.5836 22.1871 31.5867 22.192 31.5685C22.5308 30.2764 22.8219 28.9887 23.1198 27.6877C23.1243 27.6685 23.0971 27.6612 23.0906 27.6795Z" fill="white"/>
<path d="M24.6273 15.5311C25.1909 14.7713 25.9246 14.3074 26.7459 13.8692C27.5129 13.4599 28.1889 12.9283 28.8889 12.4183C29.5092 11.9664 30.1542 11.5486 30.6442 10.9492C31.0546 10.4472 31.2068 9.75816 31.3198 9.13857C31.3267 9.10077 31.2707 9.08393 31.2614 9.12242C31.0009 10.1809 30.6638 10.9111 29.7703 11.5895C29.1081 12.0922 28.3648 12.4919 27.6301 12.8768C26.4394 13.5012 25.3345 14.372 24.6142 15.5235C24.6091 15.5318 24.6218 15.5387 24.6273 15.5311Z" fill="white"/>
<path d="M10.2796 12.3445C11.0257 13.4009 12.0288 14.092 13.2323 14.5445C14.7319 15.1085 16.6725 15.2782 17.7842 16.5425C17.9481 16.7291 18.2293 16.4511 18.0574 16.2693C17.1454 15.303 15.6677 15.0933 14.4398 14.7401C12.8336 14.2779 11.3436 13.6954 10.2824 12.3424C10.2814 12.3407 10.2783 12.3428 10.2796 12.3445Z" fill="white"/>
<path d="M11.1866 17.8351C12.001 18.7393 13.0759 19.9461 14.4196 19.5248C14.4773 19.5066 14.4736 19.431 14.4196 19.4114C13.9179 19.23 13.4007 19.1369 12.8945 18.976C12.2072 18.7578 11.6989 18.3265 11.1945 17.8269C11.1896 17.8217 11.1817 17.8296 11.1866 17.8351Z" fill="white"/>
<path d="M12.8209 18.2625C13.0642 18.4869 13.3306 18.6835 13.5653 18.9178C13.7021 19.0543 13.8148 19.2034 13.9385 19.3508C13.9873 19.4089 14.0265 19.4646 14.0959 19.4993C14.1502 19.5264 14.2392 19.5824 14.1763 19.5007C14.2354 19.578 14.3302 19.5804 14.389 19.5007C14.5931 19.224 14.0436 18.9941 13.8749 18.9141C13.5096 18.7405 13.1539 18.4934 12.8323 18.2481C12.824 18.2408 12.8134 18.2552 12.8209 18.2625Z" fill="white"/>
<path d="M13.9452 18.3809C14.1119 18.5809 14.294 18.7699 14.4528 18.9761C14.559 19.1139 14.5886 19.2864 14.7356 19.3802C14.7178 19.349 14.6999 19.3177 14.6817 19.2864C14.6807 19.3215 14.6796 19.3565 14.6789 19.3916C14.669 19.451 14.7325 19.4929 14.7803 19.4507C14.8315 19.4053 14.8504 19.3854 14.9061 19.35C15.1178 19.2163 14.9769 18.9129 14.7411 18.9586C14.6686 18.9727 14.4466 18.8002 14.3855 18.7541C14.2305 18.6373 14.0899 18.5101 13.9531 18.373C13.948 18.3675 13.9408 18.3751 13.9452 18.3809Z" fill="white"/>
<path d="M12.9773 18.7337C13.3406 19.0001 13.711 19.5839 14.2251 19.4575C14.3457 19.4279 14.3437 19.2471 14.2251 19.2162C13.7842 19.1021 13.399 18.8956 12.9801 18.7269C12.9763 18.7251 12.9742 18.7313 12.9773 18.7337Z" fill="white"/>
<path d="M17.198 13.6764C16.8193 14.7215 17.0963 15.6634 17.7619 16.495C17.8512 16.6064 18.0351 16.4613 17.9581 16.3435C17.4375 15.5455 16.9688 14.6668 17.209 13.6795C17.2107 13.6719 17.2004 13.6696 17.198 13.6764Z" fill="white"/>
<path d="M11.6638 11.1108C11.7357 11.8837 11.7291 12.7847 12.2828 13.3837C12.2913 13.393 12.3096 13.3834 12.3047 13.3706C12.0278 12.6253 11.8106 11.894 11.6673 11.1101C11.6669 11.1081 11.6635 11.1088 11.6638 11.1108Z" fill="white"/>
<path d="M26.0287 12.6005C25.8318 12.9417 25.6273 13.2757 25.3805 13.5836C25.1558 13.8641 24.84 14.0428 24.6108 14.3194C24.5764 14.3606 24.6073 14.4314 24.6661 14.4146C25.039 14.3053 25.1926 14.0431 25.4135 13.7434C25.6702 13.3953 25.8538 12.9943 26.0318 12.6025C26.0331 12.6005 26.03 12.5984 26.0287 12.6005Z" fill="white"/>
<path d="M23.4207 13.2864C23.6049 13.5022 23.6306 13.6723 23.5873 13.9396C23.5767 14.0056 23.599 14.0472 23.6251 14.1067C23.6708 14.2098 23.6485 14.3135 23.6262 14.4208C23.6111 14.4922 23.7207 14.5228 23.7358 14.451C23.7626 14.3232 23.788 14.2232 23.8385 14.1067C23.8763 14.0194 23.9025 13.9369 23.8458 13.8465C23.7131 13.6352 23.6306 13.4345 23.4251 13.2805C23.4214 13.2778 23.4179 13.2833 23.4207 13.2864Z" fill="white"/>
<path d="M14.9238 5.95981C15.2926 6.87185 15.1788 8.02547 15.1142 8.98597C15.0132 10.4887 14.6888 12.8283 13.0898 13.4867C12.52 13.7214 12.8544 14.5211 13.4183 14.2658C14.9479 13.5733 15.3142 10.9987 15.4675 9.52962C15.5503 8.73511 15.5634 7.91276 15.5606 7.11343C15.5589 6.63817 15.4864 6.08111 14.9867 5.89692C14.9523 5.8842 14.9097 5.92475 14.9238 5.95981Z" fill="#B5A872"/>
<path d="M24.4886 14.017C25.4958 14.429 24.8704 12.4572 24.7841 12.1214C24.5851 11.3472 24.4838 10.5262 24.4759 9.72757C24.4686 8.97738 24.9982 7.10828 25.9346 6.91996C26.1199 6.88285 26.0401 6.60518 25.857 6.63851C24.4164 6.90175 24.1501 9.14027 24.0243 10.287C23.949 10.9743 24.1872 11.7434 24.3621 12.4046C24.4961 12.9101 24.4948 13.4823 24.469 13.9912C24.4683 14.0043 24.4779 14.0129 24.4886 14.017Z" fill="#B5A872"/>
<path d="M17.6722 24.8842C17.8897 25.9224 19.0011 26.2482 19.9362 26.064C20.1506 26.0217 20.131 25.7052 19.9362 25.6509C19.2365 25.4561 17.997 25.6946 17.676 24.8832C17.675 24.8808 17.6715 24.8818 17.6722 24.8842Z" fill="white"/>
<path d="M16.8271 16.2384C17.0735 16.4085 17.269 16.8772 17.5972 16.9003C17.9151 16.9223 18.1687 16.5992 18.023 16.3102C18.0017 16.268 17.9333 16.2683 17.9116 16.3102C17.8209 16.4865 17.5563 16.7267 17.3501 16.6058C17.1645 16.4972 17.0278 16.3236 16.8308 16.2319C16.8267 16.2298 16.8233 16.2357 16.8271 16.2384Z" fill="white"/>
<path d="M21.2953 20.3146C20.8115 20.8524 19.8513 21.4655 19.1059 21.4194C19.0908 21.4184 19.0881 21.4418 19.1025 21.4456C19.5596 21.5586 19.9709 21.6315 20.4111 21.4232C20.8671 21.2074 21.1091 20.7531 21.2984 20.3167C21.2991 20.315 21.2967 20.3129 21.2953 20.3146Z" fill="white"/>
<path d="M24.4142 19.1561C24.2829 20.2324 24.4015 21.4517 25.297 22.2005C25.4702 22.3451 25.6881 22.1269 25.5434 21.9541C25.2537 21.607 24.9664 21.3032 24.7575 20.8956C24.485 20.3633 24.4489 19.7413 24.4214 19.1561C24.4214 19.1509 24.4149 19.1513 24.4142 19.1561Z" fill="white"/>
<path d="M24.9354 22.9255C25.1681 22.7567 25.4286 22.6409 25.6622 22.4742C25.9409 22.2756 26.187 22.121 26.5265 22.0471C26.5389 22.0443 26.5396 22.0237 26.5265 22.0217C26.2375 21.9722 25.8894 21.9481 25.6162 22.0825C25.2519 22.2619 25.1231 22.5856 24.9303 22.9203C24.9282 22.9231 24.932 22.9275 24.9354 22.9255Z" fill="white"/>
<path d="M25.1703 19.1746C25.105 19.2289 25.0259 19.2643 24.9589 19.3172C24.8837 19.3763 24.9486 19.5 25.0338 19.4983C25.1479 19.4962 25.2469 19.4591 25.3424 19.3979C25.5146 19.2873 25.3301 19.0419 25.1703 19.1746Z" fill="white"/>
<path d="M24.6861 8.01187C24.0936 8.70776 23.973 9.55073 23.9373 10.4418C23.8837 11.7745 24.7362 13.2274 23.9603 14.4487C23.9314 14.4941 23.9861 14.5353 24.0276 14.5161C24.895 14.113 24.8342 13.3834 24.6362 12.5274C24.2675 10.9312 24.163 9.58715 24.6954 8.01737C24.6974 8.01221 24.6899 8.00775 24.6861 8.01187Z" fill="#B5A872"/>
<path d="M25.1585 7.1818C23.9867 8.10346 23.9354 9.57702 24.1365 10.9389C24.1561 11.0705 24.3554 11.0313 24.3599 10.9087C24.4035 9.67806 24.3303 8.20037 25.1667 7.1897C25.1712 7.18386 25.1643 7.17699 25.1585 7.1818Z" fill="#B5A872"/>
<path d="M15.0608 11.1356C14.8443 11.6906 14.521 12.2215 14.156 12.6909C13.9725 12.927 13.7636 13.1528 13.5093 13.3133C13.3155 13.4356 13.0402 13.4054 12.8209 13.4528C12.5749 13.5061 12.6491 13.8552 12.8773 13.87C14.3093 13.9645 14.8437 12.2452 15.0753 11.1394C15.0773 11.1301 15.0643 11.1266 15.0608 11.1356Z" fill="#B5A872"/>
<path d="M16.2146 20.2312C16.1201 20.4062 15.9586 20.5141 15.8576 20.6766C15.7387 20.868 15.6672 21.0721 15.594 21.2842C15.44 21.7292 15.3472 22.1845 15.0926 22.5907C15.0648 22.6354 15.1277 22.6818 15.1641 22.6457C15.5366 22.2784 15.8933 21.9629 16.2136 21.5453C16.5425 21.1165 16.3682 20.7024 16.2871 20.2405C16.2813 20.2062 16.2304 20.2024 16.2146 20.2312Z" fill="#B5A872"/>
<path d="M18.6473 15.7988C19.2054 15.8372 20.0446 15.84 20.4748 16.2637C20.8339 16.6173 21.2693 16.5702 21.7106 16.7909C21.7425 16.8067 21.769 16.7699 21.7474 16.7431C21.3903 16.305 21.1996 15.9592 20.624 15.9043C19.9738 15.8417 19.3061 15.7805 18.6477 15.7833C18.6377 15.7836 18.6377 15.7981 18.6473 15.7988Z" fill="white"/>
<path d="M26.2339 18.4522C26.6057 18.6502 26.8421 19.0165 27.2737 18.8303C27.7205 18.6375 28.1397 18.3526 28.4985 18.0244C28.5078 18.0158 28.4944 18.0038 28.4851 18.011C28.1511 18.2708 27.7597 18.4931 27.3232 18.4794C26.9548 18.4681 26.5858 18.5698 26.238 18.4419C26.2318 18.4399 26.228 18.4495 26.2339 18.4522Z" fill="white"/>
<path d="M9.05234 9.64862C9.12554 9.87577 9.13207 10.1125 9.1874 10.3421C9.24341 10.5747 9.44273 10.7504 9.48568 10.9809C9.4905 11.0067 9.51696 11.0218 9.54101 11.0232C9.54685 11.0236 9.55304 11.0239 9.55888 11.0242C9.67847 11.0308 9.64961 10.8187 9.51868 10.8754C9.50218 10.8806 9.4874 10.8888 9.47434 10.9005C9.41592 10.9418 9.43208 11.0431 9.51249 11.0418C9.55854 11.0411 9.58053 11.0297 9.61558 11.0009C9.57125 10.9892 9.52658 10.9775 9.48225 10.9658C9.48362 10.971 9.48465 10.9761 9.48603 10.9813C9.51799 10.9627 9.54995 10.9442 9.58191 10.9256C9.4063 10.7593 9.46678 10.4692 9.35579 10.272C9.24341 10.072 9.15063 9.85721 9.05612 9.64793C9.05475 9.64518 9.05166 9.6469 9.05234 9.64862Z" fill="white"/>
<path d="M9.90442 11.6401C9.9157 11.6499 9.92661 11.6597 9.93789 11.6694C10.0526 11.7702 10.0526 11.4893 9.93789 11.5901C9.92661 11.5999 9.9157 11.6096 9.90442 11.6194C9.8984 11.6247 9.8984 11.6352 9.90442 11.6401Z" fill="white"/>
<path d="M26.471 11.7885C26.4363 11.9008 26.3851 12.0283 26.2889 12.1036C26.2422 12.14 26.2363 12.1864 26.2305 12.24C26.2263 12.2785 26.2751 12.2995 26.3047 12.2826C26.447 12.2008 26.47 11.9414 26.4751 11.7892C26.4748 11.7867 26.4717 11.7864 26.471 11.7885Z" fill="white"/>
<path d="M26.2447 12.345C26.2131 12.3698 26.1815 12.3943 26.1499 12.4191C26.0404 12.489 26.2582 12.5782 26.2293 12.4514C26.2364 12.418 26.2436 12.3845 26.2507 12.351C26.2541 12.3469 26.2484 12.3412 26.2447 12.345Z" fill="white"/>
<path d="M20.1149 15.6566C20.4235 15.7212 20.672 15.8704 20.8974 16.0875C21.0672 16.2508 21.1974 16.47 21.4228 16.5587C21.5015 16.5896 21.561 16.4889 21.5256 16.425C21.3971 16.1941 21.1094 16.0205 20.8922 15.8762C20.6568 15.7198 20.394 15.6645 20.1153 15.6528C20.1132 15.6528 20.1128 15.6563 20.1149 15.6566Z" fill="white"/>
<path d="M26.0647 18.408C26.3146 18.4379 26.5613 18.5832 26.8177 18.5389C27.0737 18.4949 27.2895 18.2853 27.4634 18.1059C27.4909 18.0777 27.4562 18.0337 27.4221 18.0523C27.1912 18.1777 26.9864 18.2021 26.7345 18.2368C26.506 18.2684 26.2905 18.3602 26.0637 18.4004C26.0592 18.4014 26.0609 18.4076 26.0647 18.408Z" fill="white"/>
<path d="M24.2568 20.9827C24.4186 21.4869 24.529 22.0985 24.9465 22.4649C25.0314 22.5395 25.1417 22.5594 25.2431 22.503C25.2465 22.5013 25.2496 22.4992 25.253 22.4975C25.5489 22.3336 25.2348 21.8903 24.963 22.1219C24.9595 22.125 24.9558 22.1281 24.9523 22.1312C24.8736 22.1982 24.8788 22.3113 24.9183 22.3958C24.9207 22.4013 24.9235 22.4065 24.9259 22.412C25.0159 22.2948 25.1059 22.1776 25.196 22.0607C25.0248 21.9927 24.8355 21.7862 24.7063 21.6542C24.5204 21.4645 24.3771 21.2188 24.264 20.9803C24.2619 20.9759 24.2554 20.9786 24.2568 20.9827Z" fill="white"/>
<path d="M24.2878 21.8495C24.3974 21.9884 24.4077 22.1138 24.4018 22.2832C24.397 22.4251 24.4252 22.5544 24.4572 22.6918C24.5702 23.1808 25.3397 22.8159 25.0592 22.4382C24.9575 22.3014 24.8582 22.1866 24.7029 22.1107C24.5455 22.0337 24.4256 21.9629 24.2909 21.8468C24.2888 21.8451 24.2864 21.8475 24.2878 21.8495Z" fill="white"/>
<path d="M24.0206 27.7863C23.3254 28.5833 22.769 29.497 22.2518 30.4163C21.6903 31.4146 21.5332 32.5685 21.4597 33.6967C21.4525 33.8043 21.6205 33.8246 21.646 33.7218C21.8865 32.7421 22.335 31.8689 22.6742 30.9228C23.0649 29.8328 23.3329 28.741 24.0295 27.7932C24.0333 27.7881 24.0247 27.7815 24.0206 27.7863Z" fill="white"/>
<path d="M18.3969 25.7224C17.867 25.7145 17.3302 25.6578 16.891 26.0372C16.4862 26.3867 16.3281 26.8138 16.302 27.3389C16.3013 27.3537 16.323 27.353 16.3247 27.3389C16.3883 26.7932 16.8213 26.5767 17.2361 26.3148C17.5718 26.1028 18.011 25.8289 18.3983 25.7337C18.4048 25.732 18.4034 25.7224 18.3969 25.7224Z" fill="white"/>
<path d="M16.89 26.9943C16.6776 27.5943 16.5003 28.0627 16.77 28.673C17.0673 29.3455 17.9058 29.4314 18.2041 30.1222C18.2151 30.1479 18.2577 30.1294 18.2491 30.1033C18.1209 29.7136 17.9048 29.3441 17.5725 29.0926C16.8539 28.5482 16.8188 27.8314 16.8975 26.9956C16.8979 26.9908 16.8914 26.9905 16.89 26.9943Z" fill="white"/>
<path d="M19.3582 30.3478C19.5084 31.2073 20.015 31.9131 20.294 32.7345C20.3005 32.7534 20.3266 32.7455 20.3232 32.7266C20.2435 32.2637 20.3253 31.8149 20.1394 31.3781C19.9644 30.9667 19.5497 30.7382 19.3686 30.3437C19.3658 30.3368 19.3572 30.3416 19.3582 30.3478Z" fill="white"/>
</g>
<defs>
<clipPath id="clip0_144_1024">
<rect width="40" height="40" fill="white"/>
</clipPath>
</defs>
</svg>
